<svg width="342" height="172" viewBox="0 0 342 172" fill="none" xmlns="http://www.w3.org/2000/svg">
<path d="M16.124 2H68.8486L122.594 51.1904V156.967C122.593 163.849 116.44 169.724 108.47 169.724H16.124C8.15342 169.724 2.00027 163.849 2 156.967V14.7578C2 7.87504 8.15324 2 16.124 2Z" fill="#F1F1F7" stroke="#DCDDEB" stroke-width="4"/>
<path d="M77.5772 12.1573L111.49 45.8545C115.645 49.9834 112.665 56.0567 106.789 56.0567H72.8756C69.2326 56.0567 66.3169 53.3841 66.3169 49.7644V16.7918C66.3169 10.9527 73.4219 8.0284 77.5772 12.1573Z" fill="#DCDDEB"/>
<path d="M67.568 2.21183L119.335 53.6496C119.929 54.2399 119.219 55.1977 118.476 54.8091L66.7086 27.7542C66.4677 27.6283 66.3169 27.3801 66.3169 27.1096V2.72677C66.3169 2.07798 67.1063 1.75306 67.568 2.21183Z" fill="#DCDDEB"/>
<path d="M71.7149 6.3323L122.202 52.2526C122.664 52.7113 121.597 56.0567 120.944 56.0567H104.78C104.536 56.0567 104.309 55.9366 104.172 55.7361L70.5893 7.25481C70.0924 6.52368 71.0871 5.70847 71.7149 6.3323Z" fill="#DCDDEB"/>
<path d="M52.7496 112.62C49.9724 112.62 47.8171 111.79 46.2837 110.131C44.7673 108.489 44.0091 106.187 44.0091 103.224C44.0091 101.802 44.188 100.397 44.5458 99.0084C44.9036 97.6202 45.0825 96.1812 45.0825 94.6914C45.0825 93.7433 44.6736 93.0069 43.8558 92.482C43.055 91.9403 42.1094 91.5678 41.019 91.3647C39.9456 91.1446 39 91.0346 38.1821 91.0346V87.0222C38.7785 87.0222 39.46 86.9461 40.2267 86.7937C41.0104 86.6244 41.7686 86.3874 42.5013 86.0826C43.2509 85.761 43.8643 85.3716 44.3414 84.9145C44.8355 84.4574 45.0825 83.941 45.0825 83.3654C45.0825 81.8079 44.9036 80.352 44.5458 78.9976C44.188 77.6432 44.0091 76.255 44.0091 74.8329C44.0091 71.9718 44.7673 69.7709 46.2837 68.2303C47.8171 66.6728 49.9724 65.894 52.7496 65.894C53.7549 65.894 54.5897 65.9448 55.2542 66.0464C55.9187 66.1311 56.5321 66.2496 57.0943 66.4019L56.481 70.719C55.8846 70.6343 55.3053 70.5751 54.7431 70.5412C54.1979 70.4904 53.6867 70.465 53.2097 70.465C52 70.465 51.0714 70.846 50.424 71.6078C49.7935 72.3696 49.4783 73.4447 49.4783 74.8329C49.4783 76.3058 49.6743 77.7109 50.0662 79.0484C50.458 80.3858 50.654 81.791 50.654 83.2639C50.654 84.9399 50.0662 86.2435 48.8905 87.1746C47.7149 88.0888 46.0707 88.5628 43.958 88.5967V89.4601C46.0707 89.494 47.7149 89.9934 48.8905 90.9584C50.0662 91.9064 50.654 93.1846 50.654 94.7929C50.654 96.3335 50.458 97.7726 50.0662 99.11C49.6743 100.447 49.4783 101.819 49.4783 103.224C49.4783 104.764 49.7935 105.958 50.424 106.805C51.0714 107.634 52 108.049 53.2097 108.049C53.6867 108.049 54.1979 108.023 54.7431 107.973C55.3053 107.922 55.8846 107.863 56.481 107.795L57.0943 112.112C56.5321 112.264 55.9187 112.383 55.2542 112.467C54.5897 112.569 53.7549 112.62 52.7496 112.62Z" fill="#4C4F69"/>
<path d="M71.9052 112.62C70.9169 112.62 70.0821 112.569 69.4006 112.467C68.7361 112.383 68.1227 112.264 67.5605 112.112L68.1738 107.795C68.7702 107.863 69.3409 107.922 69.8861 107.973C70.4484 108.023 70.9681 108.049 71.4451 108.049C72.6548 108.049 73.5749 107.634 74.2053 106.805C74.8527 105.958 75.1765 104.764 75.1765 103.224C75.1765 101.819 74.9805 100.447 74.5886 99.11C74.1968 97.7726 74.0008 96.3335 74.0008 94.7929C74.0008 93.1846 74.5886 91.9064 75.7643 90.9584C76.9399 89.9934 78.5841 89.494 80.6968 89.4601V88.5967C78.5841 88.5628 76.9399 88.0888 75.7643 87.1746C74.5886 86.2435 74.0008 84.9399 74.0008 83.2639C74.0008 81.791 74.1968 80.3858 74.5886 79.0484C74.9805 77.7109 75.1765 76.3058 75.1765 74.8329C75.1765 73.4447 74.8527 72.3696 74.2053 71.6078C73.5749 70.846 72.6548 70.465 71.4451 70.465C70.9681 70.465 70.4484 70.4904 69.8861 70.5412C69.3409 70.5751 68.7702 70.6343 68.1738 70.719L67.5605 66.4019C68.1227 66.2496 68.7361 66.1311 69.4006 66.0464C70.0821 65.9448 70.9169 65.894 71.9052 65.894C74.6824 65.894 76.8291 66.6728 78.3455 68.2303C79.8789 69.7709 80.6457 71.9718 80.6457 74.8329C80.6457 76.255 80.4668 77.6432 80.109 78.9976C79.7512 80.352 79.5723 81.8079 79.5723 83.3654C79.5723 83.941 79.8108 84.4574 80.2879 84.9145C80.782 85.3716 81.3953 85.761 82.128 86.0826C82.8776 86.3874 83.6444 86.6244 84.4281 86.7937C85.2119 86.9461 85.8934 87.0222 86.4727 87.0222V91.0346C85.6548 91.0346 84.7007 91.1446 83.6103 91.3647C82.5369 91.5678 81.5913 91.9403 80.7734 92.482C79.9727 93.0069 79.5723 93.7433 79.5723 94.6914C79.5723 96.1812 79.7512 97.6202 80.109 99.0084C80.4668 100.397 80.6457 101.802 80.6457 103.224C80.6457 106.187 79.8789 108.489 78.3455 110.131C76.8291 111.79 74.6824 112.62 71.9052 112.62Z" fill="#4C4F69"/>
<path d="M44.822 145.749V125.936H47.6125V145.749H44.822ZM40.2038 145.749V143.098H52.2586V145.749H40.2038ZM40.2038 128.587V125.936H52.2586V128.587H40.2038ZM58.8653 145.749V143.098H61.0697C63.1068 143.098 64.6368 142.516 65.66 141.354C66.6925 140.191 67.2087 138.447 67.2087 136.121C67.2087 133.601 66.6925 131.717 65.66 130.471C64.6368 129.215 63.1068 128.587 61.0697 128.587H58.9211L58.5862 125.936H61.0697C67.1157 125.936 70.1387 129.331 70.1387 136.121C70.1387 142.54 67.1157 145.749 61.0697 145.749H58.8653ZM56.2701 145.749V125.936H59.0606V145.749H56.2701ZM73.0062 145.749V125.936H75.7966V145.749H73.0062ZM73.0062 145.749V143.098H86.1213V145.749H73.0062Z" fill="#4C4F69"/>
<rect x="259.425" y="2" width="80.5745" height="80.0365" rx="13.1189" fill="#F1F1F7"/>
<rect x="259.425" y="2" width="80.5745" height="80.0365" rx="13.1189" stroke="#DCDDEB" stroke-width="4"/>
<g clip-path="url(#clip0_47_1278)">
<path d="M295.322 34.2583H302.58C307.047 34.2583 307.047 38.725 302.58 38.725H295.322V34.2583ZM278.014 54.9166H300.347V48.775H295.322V44.3083H300.905C307.047 44.3083 303.697 54.9166 308.722 54.9166H322.68V44.3083H319.33V45.425C319.33 49.8916 314.305 49.3333 313.747 46.5417C313.189 43.75 310.955 41.5167 310.397 41.5167C318.772 37.05 313.747 28.1167 307.047 28.1167H280.805V34.2583H286.389V48.775H278.014V54.9166Z" fill="#4C4F69" stroke="#4C4F69" stroke-width="0.558332" stroke-linejoin="round"/>
<path d="M300.067 66.3622C313.327 66.3622 324.076 55.6134 324.076 42.354C324.076 29.0946 313.327 18.3457 300.067 18.3457C286.808 18.3457 276.059 29.0946 276.059 42.354C276.059 55.6134 286.808 66.3622 300.067 66.3622Z" stroke="#4C4F69" stroke-width="5.02499"/>
<path d="M325.751 44.0287L328.543 42.3537L325.751 40.6787V44.0287Z" fill="#4C4F69" stroke="#4C4F69" stroke-width="1.675" stroke-linejoin="round"/>
<path d="M324.93 49.0078L327.995 47.9096L325.584 45.7222L324.93 49.0078Z" fill="#4C4F69" stroke="#4C4F69" stroke-width="1.675" stroke-linejoin="round"/>
<path d="M323.155 53.7307L326.375 53.2516L324.437 50.6357L323.155 53.7307Z" fill="#4C4F69" stroke="#4C4F69" stroke-width="1.675" stroke-linejoin="round"/>
<path d="M320.492 58.0159L323.744 58.1741L322.353 55.2305L320.492 58.0159Z" fill="#4C4F69" stroke="#4C4F69" stroke-width="1.675" stroke-linejoin="round"/>
<path d="M317.044 61.6999L320.203 62.4895L319.413 59.3311L317.044 61.6999Z" fill="#4C4F69" stroke="#4C4F69" stroke-width="1.675" stroke-linejoin="round"/>
<path d="M312.944 64.6395L315.888 66.0301L315.729 62.7783L312.944 64.6395Z" fill="#4C4F69" stroke="#4C4F69" stroke-width="1.675" stroke-linejoin="round"/>
<path d="M308.349 66.7234L310.965 68.6616L311.444 65.4414L308.349 66.7234Z" fill="#4C4F69" stroke="#4C4F69" stroke-width="1.675" stroke-linejoin="round"/>
<path d="M303.435 67.8703L305.623 70.2816L306.721 67.2168L303.435 67.8703Z" fill="#4C4F69" stroke="#4C4F69" stroke-width="1.675" stroke-linejoin="round"/>
<path d="M298.393 68.0376L300.068 70.8293L301.743 68.0376H298.393Z" fill="#4C4F69" stroke="#4C4F69" stroke-width="1.675" stroke-linejoin="round"/>
<path d="M293.414 67.2171L294.512 70.2818L296.7 67.8706L293.414 67.2171Z" fill="#4C4F69" stroke="#4C4F69" stroke-width="1.675" stroke-linejoin="round"/>
<path d="M288.691 65.4416L289.17 68.6618L291.786 66.7236L288.691 65.4416Z" fill="#4C4F69" stroke="#4C4F69" stroke-width="1.675" stroke-linejoin="round"/>
<path d="M284.406 62.7785L284.248 66.0303L287.191 64.6396L284.406 62.7785Z" fill="#4C4F69" stroke="#4C4F69" stroke-width="1.675" stroke-linejoin="round"/>
<path d="M280.722 59.3309L279.932 62.4893L283.091 61.6997L280.722 59.3309Z" fill="#4C4F69" stroke="#4C4F69" stroke-width="1.675" stroke-linejoin="round"/>
<path d="M277.782 55.2302L276.391 58.1739L279.643 58.0156L277.782 55.2302Z" fill="#4C4F69" stroke="#4C4F69" stroke-width="1.675" stroke-linejoin="round"/>
<path d="M275.698 50.635L273.76 53.2508L276.98 53.73L275.698 50.635Z" fill="#4C4F69" stroke="#4C4F69" stroke-width="1.675" stroke-linejoin="round"/>
<path d="M274.551 45.7217L272.14 47.9091L275.205 49.0073L274.551 45.7217Z" fill="#4C4F69" stroke="#4C4F69" stroke-width="1.675" stroke-linejoin="round"/>
<path d="M274.385 40.6793L271.593 42.3543L274.385 44.0293V40.6793Z" fill="#4C4F69" stroke="#4C4F69" stroke-width="1.675" stroke-linejoin="round"/>
<path d="M275.205 35.7007L272.14 36.7989L274.551 38.9863L275.205 35.7007Z" fill="#4C4F69" stroke="#4C4F69" stroke-width="1.675" stroke-linejoin="round"/>
<path d="M276.98 30.9778L273.76 31.4569L275.698 34.0728L276.98 30.9778Z" fill="#4C4F69" stroke="#4C4F69" stroke-width="1.675" stroke-linejoin="round"/>
<path d="M279.643 26.6926L276.392 26.5344L277.782 29.478L279.643 26.6926Z" fill="#4C4F69" stroke="#4C4F69" stroke-width="1.675" stroke-linejoin="round"/>
<path d="M283.091 23.0091L279.933 22.2195L280.722 25.3779L283.091 23.0091Z" fill="#4C4F69" stroke="#4C4F69" stroke-width="1.675" stroke-linejoin="round"/>
<path d="M287.191 20.0685L284.248 18.6779L284.406 21.9297L287.191 20.0685Z" fill="#4C4F69" stroke="#4C4F69" stroke-width="1.675" stroke-linejoin="round"/>
<path d="M291.786 17.9851L289.171 16.0469L288.691 19.2671L291.786 17.9851Z" fill="#4C4F69" stroke="#4C4F69" stroke-width="1.675" stroke-linejoin="round"/>
<path d="M296.7 16.8377L294.513 14.4264L293.415 17.4912L296.7 16.8377Z" fill="#4C4F69" stroke="#4C4F69" stroke-width="1.675" stroke-linejoin="round"/>
<path d="M301.742 16.6704L300.067 13.8788L298.392 16.6704H301.742Z" fill="#4C4F69" stroke="#4C4F69" stroke-width="1.675" stroke-linejoin="round"/>
<path d="M306.721 17.491L305.623 14.4262L303.436 16.8374L306.721 17.491Z" fill="#4C4F69" stroke="#4C4F69" stroke-width="1.675" stroke-linejoin="round"/>
<path d="M311.444 19.2668L310.964 16.0467L308.349 17.9849L311.444 19.2668Z" fill="#4C4F69" stroke="#4C4F69" stroke-width="1.675" stroke-linejoin="round"/>
<path d="M315.729 21.93L315.888 18.6782L312.944 20.0688L315.729 21.93Z" fill="#4C4F69" stroke="#4C4F69" stroke-width="1.675" stroke-linejoin="round"/>
<path d="M319.413 25.3781L320.202 22.2197L317.044 23.0093L319.413 25.3781Z" fill="#4C4F69" stroke="#4C4F69" stroke-width="1.675" stroke-linejoin="round"/>
<path d="M322.353 29.4783L323.743 26.5346L320.492 26.6929L322.353 29.4783Z" fill="#4C4F69" stroke="#4C4F69" stroke-width="1.675" stroke-linejoin="round"/>
<path d="M324.437 34.073L326.375 31.4572L323.155 30.978L324.437 34.073Z" fill="#4C4F69" stroke="#4C4F69" stroke-width="1.675" stroke-linejoin="round"/>
<path d="M325.584 38.9868L327.995 36.7994L324.93 35.7012L325.584 38.9868Z" fill="#4C4F69" stroke="#4C4F69" stroke-width="1.675" stroke-linejoin="round"/>
<path d="M296.159 18.9043L300.068 22.8126L303.976 18.9043H296.159Z" fill="#4C4F69" stroke="#4C4F69" stroke-width="3.34999" stroke-linejoin="round"/>
<path d="M321.163 31.3911L318.653 36.3159L323.578 38.8252L321.163 31.3911Z" fill="#4C4F69" stroke="#4C4F69" stroke-width="3.34999" stroke-linejoin="round"/>
<path d="M317.013 59.0288L311.554 58.1642L310.689 63.6233L317.013 59.0288Z" fill="#4C4F69" stroke="#4C4F69" stroke-width="3.34999" stroke-linejoin="round"/>
<path d="M289.446 63.623L288.581 58.1639L283.122 59.0285L289.446 63.623Z" fill="#4C4F69" stroke="#4C4F69" stroke-width="3.34999" stroke-linejoin="round"/>
<path d="M276.558 38.8247L281.482 36.3154L278.973 31.3906L276.558 38.8247Z" fill="#4C4F69" stroke="#4C4F69" stroke-width="3.34999" stroke-linejoin="round"/>
</g>
<rect x="259.425" y="89.9634" width="80.5745" height="80.0365" rx="13.1189" fill="#F1F1F7"/>
<rect x="259.425" y="89.9634" width="80.5745" height="80.0365" rx="13.1189" stroke="#DCDDEB" stroke-width="4"/>
<g clip-path="url(#clip1_47_1278)">
<path d="M319.084 106.812H280.31C277.711 106.812 275.604 108.906 275.604 111.488V150.016C275.604 152.598 277.711 154.691 280.31 154.691H319.084C321.683 154.691 323.789 152.598 323.789 150.016V111.488C323.789 108.906 321.683 106.812 319.084 106.812Z" fill="#4C4F69"/>
<path d="M319.084 106.812H280.31C277.711 106.812 275.604 108.906 275.604 111.488V150.016C275.604 152.598 277.711 154.691 280.31 154.691H319.084C321.683 154.691 323.789 152.598 323.789 150.016V111.488C323.789 108.906 321.683 106.812 319.084 106.812Z" fill="#4C4F69"/>
<path fill-rule="evenodd" clip-rule="evenodd" d="M305.432 144.912V149.594C306.197 149.984 307.103 150.276 308.149 150.471C309.195 150.666 310.297 150.764 311.456 150.764C312.585 150.764 313.658 150.657 314.674 150.442C315.69 150.228 316.581 149.874 317.347 149.381C318.113 148.889 318.719 148.245 319.166 147.45C319.613 146.656 319.836 145.673 319.836 144.503C319.836 143.654 319.709 142.911 319.453 142.272C319.198 141.633 318.83 141.065 318.349 140.567C317.868 140.07 317.291 139.624 316.618 139.229C315.946 138.834 315.187 138.461 314.343 138.11C313.724 137.856 313.169 137.61 312.678 137.371C312.187 137.132 311.77 136.888 311.426 136.639C311.082 136.391 310.817 136.127 310.631 135.849C310.444 135.571 310.351 135.257 310.351 134.906C310.351 134.584 310.434 134.294 310.601 134.035C310.768 133.777 311.004 133.555 311.308 133.37C311.613 133.185 311.986 133.041 312.428 132.938C312.87 132.836 313.361 132.785 313.901 132.785C314.293 132.785 314.708 132.814 315.145 132.872C315.582 132.931 316.022 133.021 316.464 133.143C316.905 133.265 317.335 133.419 317.752 133.604C318.17 133.789 318.555 134.004 318.908 134.248V129.873C318.192 129.6 317.409 129.398 316.559 129.266C315.71 129.135 314.735 129.069 313.636 129.069C312.516 129.069 311.456 129.188 310.454 129.427C309.453 129.666 308.571 130.039 307.81 130.546C307.049 131.054 306.448 131.7 306.006 132.485C305.564 133.27 305.343 134.209 305.343 135.301C305.343 136.696 305.748 137.885 306.558 138.87C307.368 139.855 308.598 140.689 310.248 141.372C310.896 141.635 311.5 141.894 312.06 142.147C312.619 142.401 313.103 142.664 313.51 142.937C313.918 143.21 314.239 143.508 314.475 143.83C314.711 144.152 314.829 144.517 314.829 144.927C314.829 145.229 314.755 145.51 314.608 145.768C314.46 146.027 314.237 146.251 313.937 146.441C313.638 146.631 313.265 146.78 312.818 146.887C312.371 146.995 311.848 147.048 311.249 147.048C310.228 147.048 309.217 146.87 308.215 146.514C307.214 146.158 306.286 145.624 305.432 144.912ZM297.511 133.378H303.555V129.536H286.709V133.378H292.723V150.483H297.511V133.378Z" fill="#F1F1F7"/>
</g>
<path d="M124.205 83.5942H122.205V87.5942H124.205V85.5942V83.5942ZM253.831 87.0085C254.612 86.2274 254.612 84.9611 253.831 84.18L241.103 71.4521C240.322 70.6711 239.056 70.6711 238.275 71.4521C237.494 72.2332 237.494 73.4995 238.275 74.2805L249.589 85.5942L238.275 96.9079C237.494 97.689 237.494 98.9553 238.275 99.7364C239.056 100.517 240.322 100.517 241.103 99.7364L253.831 87.0085ZM124.205 85.5942V87.5942C124.39 87.5942 124.575 87.5942 124.76 87.5942C124.945 87.5942 125.129 87.5942 125.314 87.5942C125.498 87.5942 125.682 87.5942 125.866 87.5942C126.049 87.5942 126.233 87.5942 126.416 87.5942C126.599 87.5942 126.782 87.5942 126.965 87.5942C127.148 87.5942 127.33 87.5942 127.513 87.5942C127.695 87.5942 127.877 87.5942 128.059 87.5942C128.241 87.5942 128.422 87.5942 128.604 87.5942C128.785 87.5942 128.966 87.5942 129.147 87.5942C129.328 87.5942 129.508 87.5942 129.688 87.5942C129.869 87.5942 130.049 87.5942 130.229 87.5942C130.409 87.5942 130.588 87.5942 130.768 87.5942C130.947 87.5942 131.126 87.5942 131.305 87.5942C131.484 87.5942 131.662 87.5942 131.841 87.5942C132.019 87.5942 132.197 87.5942 132.375 87.5942C132.553 87.5942 132.731 87.5942 132.908 87.5942C133.086 87.5942 133.263 87.5942 133.44 87.5942C133.617 87.5942 133.793 87.5942 133.97 87.5942C134.146 87.5942 134.322 87.5942 134.498 87.5942C134.674 87.5942 134.85 87.5942 135.025 87.5942C135.201 87.5942 135.376 87.5942 135.551 87.5942C135.726 87.5942 135.901 87.5942 136.075 87.5942C136.25 87.5942 136.424 87.5942 136.598 87.5942C136.772 87.5942 136.946 87.5942 137.12 87.5942C137.293 87.5942 137.467 87.5942 137.64 87.5942C137.813 87.5942 137.986 87.5942 138.158 87.5942C138.331 87.5942 138.503 87.5942 138.675 87.5942C138.847 87.5942 139.019 87.5942 139.191 87.5942C139.362 87.5942 139.534 87.5942 139.705 87.5942C139.876 87.5942 140.047 87.5942 140.218 87.5942C140.388 87.5942 140.559 87.5942 140.729 87.5942C140.899 87.5942 141.069 87.5942 141.239 87.5942C141.409 87.5942 141.578 87.5942 141.747 87.5942C141.917 87.5942 142.086 87.5942 142.255 87.5942C142.423 87.5942 142.592 87.5942 142.76 87.5942C142.928 87.5942 143.097 87.5942 143.264 87.5942C143.432 87.5942 143.6 87.5942 143.767 87.5942C143.935 87.5942 144.102 87.5942 144.269 87.5942C144.435 87.5942 144.602 87.5942 144.769 87.5942C144.935 87.5942 145.101 87.5942 145.267 87.5942C145.433 87.5942 145.599 87.5942 145.764 87.5942C145.93 87.5942 146.095 87.5942 146.26 87.5942C146.425 87.5942 146.59 87.5942 146.754 87.5942C146.919 87.5942 147.083 87.5942 147.247 87.5942C147.411 87.5942 147.575 87.5942 147.739 87.5942C147.902 87.5942 148.066 87.5942 148.229 87.5942C148.392 87.5942 148.555 87.5942 148.717 87.5942C148.88 87.5942 149.042 87.5942 149.205 87.5942C149.367 87.5942 149.529 87.5942 149.691 87.5942C149.852 87.5942 150.014 87.5942 150.175 87.5942C150.336 87.5942 150.497 87.5942 150.658 87.5942C150.819 87.5942 150.98 87.5942 151.14 87.5942C151.3 87.5942 151.46 87.5942 151.62 87.5942C151.78 87.5942 151.94 87.5942 152.099 87.5942C152.258 87.5942 152.418 87.5942 152.577 87.5942C152.736 87.5942 152.894 87.5942 153.053 87.5942C153.211 87.5942 153.369 87.5942 153.527 87.5942C153.686 87.5942 153.843 87.5942 154.001 87.5942C154.158 87.5942 154.316 87.5942 154.473 87.5942C154.63 87.5942 154.787 87.5942 154.943 87.5942C155.1 87.5942 155.256 87.5942 155.413 87.5942C155.569 87.5942 155.725 87.5942 155.88 87.5942C156.036 87.5942 156.192 87.5942 156.347 87.5942C156.502 87.5942 156.657 87.5942 156.812 87.5942C156.967 87.5942 157.121 87.5942 157.276 87.5942C157.43 87.5942 157.584 87.5942 157.738 87.5942C157.892 87.5942 158.046 87.5942 158.199 87.5942C158.353 87.5942 158.506 87.5942 158.659 87.5942C158.812 87.5942 158.964 87.5942 159.117 87.5942C159.269 87.5942 159.422 87.5942 159.574 87.5942C159.726 87.5942 159.878 87.5942 160.029 87.5942C160.181 87.5942 160.332 87.5942 160.484 87.5942C160.635 87.5942 160.786 87.5942 160.936 87.5942C161.087 87.5942 161.238 87.5942 161.388 87.5942C161.538 87.5942 161.688 87.5942 161.838 87.5942C161.988 87.5942 162.137 87.5942 162.287 87.5942C162.436 87.5942 162.585 87.5942 162.734 87.5942C162.883 87.5942 163.032 87.5942 163.18 87.5942C163.328 87.5942 163.477 87.5942 163.625 87.5942C163.773 87.5942 163.92 87.5942 164.068 87.5942C164.216 87.5942 164.363 87.5942 164.51 87.5942C164.657 87.5942 164.804 87.5942 164.951 87.5942C165.097 87.5942 165.244 87.5942 165.39 87.5942C165.536 87.5942 165.682 87.5942 165.828 87.5942C165.974 87.5942 166.119 87.5942 166.265 87.5942C166.41 87.5942 166.555 87.5942 166.7 87.5942C166.845 87.5942 166.989 87.5942 167.134 87.5942C167.278 87.5942 167.422 87.5942 167.566 87.5942C167.71 87.5942 167.854 87.5942 167.998 87.5942C168.141 87.5942 168.285 87.5942 168.428 87.5942C168.571 87.5942 168.714 87.5942 168.856 87.5942C168.999 87.5942 169.141 87.5942 169.284 87.5942C169.426 87.5942 169.568 87.5942 169.71 87.5942C169.851 87.5942 169.993 87.5942 170.134 87.5942C170.276 87.5942 170.417 87.5942 170.558 87.5942C170.698 87.5942 170.839 87.5942 170.98 87.5942C171.12 87.5942 171.26 87.5942 171.4 87.5942C171.54 87.5942 171.68 87.5942 171.82 87.5942C171.959 87.5942 172.099 87.5942 172.238 87.5942C172.377 87.5942 172.516 87.5942 172.654 87.5942C172.793 87.5942 172.932 87.5942 173.07 87.5942C173.208 87.5942 173.346 87.5942 173.484 87.5942C173.622 87.5942 173.759 87.5942 173.897 87.5942C174.034 87.5942 174.171 87.5942 174.308 87.5942C174.445 87.5942 174.582 87.5942 174.718 87.5942C174.855 87.5942 174.991 87.5942 175.127 87.5942C175.263 87.5942 175.399 87.5942 175.535 87.5942C175.671 87.5942 175.806 87.5942 175.941 87.5942C176.076 87.5942 176.211 87.5942 176.346 87.5942C176.481 87.5942 176.616 87.5942 176.75 87.5942C176.884 87.5942 177.018 87.5942 177.152 87.5942C177.286 87.5942 177.42 87.5942 177.553 87.5942C177.687 87.5942 177.82 87.5942 177.953 87.5942C178.086 87.5942 178.219 87.5942 178.352 87.5942C178.484 87.5942 178.617 87.5942 178.749 87.5942C178.881 87.5942 179.013 87.5942 179.145 87.5942C179.277 87.5942 179.408 87.5942 179.54 87.5942C179.671 87.5942 179.802 87.5942 179.933 87.5942C180.064 87.5942 180.195 87.5942 180.325 87.5942C180.456 87.5942 180.586 87.5942 180.716 87.5942C180.846 87.5942 180.976 87.5942 181.106 87.5942C181.235 87.5942 181.365 87.5942 181.494 87.5942C181.623 87.5942 181.752 87.5942 181.881 87.5942C182.01 87.5942 182.138 87.5942 182.267 87.5942C182.395 87.5942 182.523 87.5942 182.651 87.5942C182.779 87.5942 182.907 87.5942 183.034 87.5942C183.162 87.5942 183.289 87.5942 183.416 87.5942C183.543 87.5942 183.67 87.5942 183.797 87.5942C183.923 87.5942 184.05 87.5942 184.176 87.5942C184.302 87.5942 184.428 87.5942 184.554 87.5942C184.68 87.5942 184.806 87.5942 184.931 87.5942C185.057 87.5942 185.182 87.5942 185.307 87.5942C185.432 87.5942 185.556 87.5942 185.681 87.5942C185.806 87.5942 185.93 87.5942 186.054 87.5942C186.178 87.5942 186.302 87.5942 186.426 87.5942C186.55 87.5942 186.673 87.5942 186.797 87.5942C186.92 87.5942 187.043 87.5942 187.166 87.5942C187.289 87.5942 187.411 87.5942 187.534 87.5942C187.656 87.5942 187.779 87.5942 187.901 87.5942C188.023 87.5942 188.145 87.5942 188.266 87.5942C188.388 87.5942 188.509 87.5942 188.631 87.5942C188.752 87.5942 188.873 87.5942 188.994 87.5942C189.115 87.5942 189.235 87.5942 189.356 87.5942C189.476 87.5942 189.596 87.5942 189.716 87.5942C189.836 87.5942 189.956 87.5942 190.076 87.5942C190.195 87.5942 190.315 87.5942 190.434 87.5942C190.553 87.5942 190.672 87.5942 190.791 87.5942C190.909 87.5942 191.028 87.5942 191.146 87.5942C191.265 87.5942 191.383 87.5942 191.501 87.5942C191.619 87.5942 191.737 87.5942 191.854 87.5942C191.972 87.5942 192.089 87.5942 192.206 87.5942C192.323 87.5942 192.44 87.5942 192.557 87.5942C192.674 87.5942 192.79 87.5942 192.906 87.5942C193.023 87.5942 193.139 87.5942 193.255 87.5942C193.371 87.5942 193.486 87.5942 193.602 87.5942C193.717 87.5942 193.833 87.5942 193.948 87.5942C194.063 87.5942 194.178 87.5942 194.292 87.5942C194.407 87.5942 194.521 87.5942 194.636 87.5942C194.75 87.5942 194.864 87.5942 194.978 87.5942C195.092 87.5942 195.206 87.5942 195.319 87.5942C195.432 87.5942 195.546 87.5942 195.659 87.5942C195.772 87.5942 195.885 87.5942 195.997 87.5942C196.11 87.5942 196.223 87.5942 196.335 87.5942C196.447 87.5942 196.559 87.5942 196.671 87.5942C196.783 87.5942 196.895 87.5942 197.006 87.5942C197.117 87.5942 197.229 87.5942 197.34 87.5942C197.451 87.5942 197.562 87.5942 197.672 87.5942C197.783 87.5942 197.893 87.5942 198.004 87.5942C198.114 87.5942 198.224 87.5942 198.334 87.5942C198.444 87.5942 198.553 87.5942 198.663 87.5942C198.772 87.5942 198.882 87.5942 198.991 87.5942C199.1 87.5942 199.209 87.5942 199.317 87.5942C199.426 87.5942 199.534 87.5942 199.643 87.5942C199.751 87.5942 199.859 87.5942 199.967 87.5942C200.075 87.5942 200.182 87.5942 200.29 87.5942C200.397 87.5942 200.505 87.5942 200.612 87.5942C200.719 87.5942 200.826 87.5942 200.932 87.5942C201.039 87.5942 201.146 87.5942 201.252 87.5942C201.358 87.5942 201.464 87.5942 201.57 87.5942C201.676 87.5942 201.782 87.5942 201.887 87.5942C201.993 87.5942 202.098 87.5942 202.203 87.5942C202.308 87.5942 202.413 87.5942 202.518 87.5942C202.623 87.5942 202.727 87.5942 202.832 87.5942C202.936 87.5942 203.04 87.5942 203.144 87.5942C203.248 87.5942 203.352 87.5942 203.455 87.5942C203.559 87.5942 203.662 87.5942 203.766 87.5942C203.869 87.5942 203.972 87.5942 204.074 87.5942C204.177 87.5942 204.28 87.5942 204.382 87.5942C204.485 87.5942 204.587 87.5942 204.689 87.5942C204.791 87.5942 204.893 87.5942 204.994 87.5942C205.096 87.5942 205.197 87.5942 205.299 87.5942C205.4 87.5942 205.501 87.5942 205.602 87.5942C205.702 87.5942 205.803 87.5942 205.904 87.5942C206.004 87.5942 206.104 87.5942 206.204 87.5942C206.304 87.5942 206.404 87.5942 206.504 87.5942C206.604 87.5942 206.703 87.5942 206.803 87.5942C206.902 87.5942 207.001 87.5942 207.1 87.5942C207.199 87.5942 207.298 87.5942 207.396 87.5942C207.495 87.5942 207.593 87.5942 207.691 87.5942C207.789 87.5942 207.887 87.5942 207.985 87.5942C208.083 87.5942 208.18 87.5942 208.278 87.5942C208.375 87.5942 208.472 87.5942 208.569 87.5942C208.666 87.5942 208.763 87.5942 208.86 87.5942C208.957 87.5942 209.053 87.5942 209.149 87.5942C209.246 87.5942 209.342 87.5942 209.438 87.5942C209.533 87.5942 209.629 87.5942 209.725 87.5942C209.82 87.5942 209.915 87.5942 210.011 87.5942C210.106 87.5942 210.201 87.5942 210.295 87.5942C210.39 87.5942 210.485 87.5942 210.579 87.5942C210.673 87.5942 210.768 87.5942 210.862 87.5942C210.956 87.5942 211.049 87.5942 211.143 87.5942C211.237 87.5942 211.33 87.5942 211.423 87.5942C211.517 87.5942 211.61 87.5942 211.703 87.5942C211.795 87.5942 211.888 87.5942 211.981 87.5942C212.073 87.5942 212.165 87.5942 212.258 87.5942C212.35 87.5942 212.442 87.5942 212.533 87.5942C212.625 87.5942 212.717 87.5942 212.808 87.5942C212.899 87.5942 212.991 87.5942 213.082 87.5942C213.173 87.5942 213.263 87.5942 213.354 87.5942C213.445 87.5942 213.535 87.5942 213.626 87.5942C213.716 87.5942 213.806 87.5942 213.896 87.5942C213.986 87.5942 214.075 87.5942 214.165 87.5942C214.254 87.5942 214.344 87.5942 214.433 87.5942C214.522 87.5942 214.611 87.5942 214.7 87.5942C214.789 87.5942 214.877 87.5942 214.966 87.5942C215.054 87.5942 215.142 87.5942 215.231 87.5942C215.319 87.5942 215.406 87.5942 215.494 87.5942C215.582 87.5942 215.669 87.5942 215.757 87.5942C215.844 87.5942 215.931 87.5942 216.018 87.5942C216.105 87.5942 216.192 87.5942 216.278 87.5942C216.365 87.5942 216.452 87.5942 216.538 87.5942C216.624 87.5942 216.71 87.5942 216.796 87.5942C216.882 87.5942 216.967 87.5942 217.053 87.5942C217.139 87.5942 217.224 87.5942 217.309 87.5942C217.394 87.5942 217.479 87.5942 217.564 87.5942C217.649 87.5942 217.733 87.5942 217.818 87.5942C217.902 87.5942 217.986 87.5942 218.07 87.5942C218.155 87.5942 218.238 87.5942 218.322 87.5942C218.406 87.5942 218.489 87.5942 218.573 87.5942C218.656 87.5942 218.739 87.5942 218.822 87.5942C218.905 87.5942 218.988 87.5942 219.071 87.5942C219.153 87.5942 219.236 87.5942 219.318 87.5942C219.4 87.5942 219.482 87.5942 219.564 87.5942C219.646 87.5942 219.728 87.5942 219.81 87.5942C219.891 87.5942 219.972 87.5942 220.054 87.5942C220.135 87.5942 220.216 87.5942 220.297 87.5942C220.378 87.5942 220.458 87.5942 220.539 87.5942C220.619 87.5942 220.7 87.5942 220.78 87.5942C220.86 87.5942 220.94 87.5942 221.02 87.5942C221.099 87.5942 221.179 87.5942 221.258 87.5942C221.338 87.5942 221.417 87.5942 221.496 87.5942C221.575 87.5942 221.654 87.5942 221.733 87.5942C221.812 87.5942 221.89 87.5942 221.969 87.5942C222.047 87.5942 222.125 87.5942 222.203 87.5942C222.281 87.5942 222.359 87.5942 222.437 87.5942C222.514 87.5942 222.592 87.5942 222.669 87.5942C222.747 87.5942 222.824 87.5942 222.901 87.5942C222.978 87.5942 223.054 87.5942 223.131 87.5942C223.208 87.5942 223.284 87.5942 223.36 87.5942C223.437 87.5942 223.513 87.5942 223.589 87.5942C223.665 87.5942 223.74 87.5942 223.816 87.5942C223.892 87.5942 223.967 87.5942 224.042 87.5942C224.118 87.5942 224.193 87.5942 224.267 87.5942C224.342 87.5942 224.417 87.5942 224.492 87.5942C224.566 87.5942 224.641 87.5942 224.715 87.5942C224.789 87.5942 224.863 87.5942 224.937 87.5942C225.011 87.5942 225.084 87.5942 225.158 87.5942C225.231 87.5942 225.305 87.5942 225.378 87.5942C225.451 87.5942 225.524 87.5942 225.597 87.5942C225.67 87.5942 225.742 87.5942 225.815 87.5942C225.887 87.5942 225.96 87.5942 226.032 87.5942C226.104 87.5942 226.176 87.5942 226.248 87.5942C226.32 87.5942 226.391 87.5942 226.463 87.5942C226.534 87.5942 226.605 87.5942 226.677 87.5942C226.748 87.5942 226.819 87.5942 226.889 87.5942C226.96 87.5942 227.031 87.5942 227.101 87.5942C227.172 87.5942 227.242 87.5942 227.312 87.5942C227.382 87.5942 227.452 87.5942 227.522 87.5942C227.592 87.5942 227.661 87.5942 227.731 87.5942C227.8 87.5942 227.869 87.5942 227.939 87.5942C228.008 87.5942 228.077 87.5942 228.145 87.5942C228.214 87.5942 228.283 87.5942 228.351 87.5942C228.42 87.5942 228.488 87.5942 228.556 87.5942C228.624 87.5942 228.692 87.5942 228.76 87.5942C228.827 87.5942 228.895 87.5942 228.962 87.5942C229.03 87.5942 229.097 87.5942 229.164 87.5942C229.231 87.5942 229.298 87.5942 229.365 87.5942C229.432 87.5942 229.498 87.5942 229.565 87.5942C229.631 87.5942 229.698 87.5942 229.764 87.5942C229.83 87.5942 229.896 87.5942 229.961 87.5942C230.027 87.5942 230.093 87.5942 230.158 87.5942C230.224 87.5942 230.289 87.5942 230.354 87.5942C230.419 87.5942 230.484 87.5942 230.549 87.5942C230.614 87.5942 230.678 87.5942 230.743 87.5942C230.807 87.5942 230.871 87.5942 230.936 87.5942C231 87.5942 231.064 87.5942 231.127 87.5942C231.191 87.5942 231.255 87.5942 231.318 87.5942C231.382 87.5942 231.445 87.5942 231.508 87.5942C231.571 87.5942 231.634 87.5942 231.697 87.5942C231.76 87.5942 231.823 87.5942 231.885 87.5942C231.948 87.5942 232.01 87.5942 232.072 87.5942C232.134 87.5942 232.196 87.5942 232.258 87.5942C232.32 87.5942 232.382 87.5942 232.443 87.5942C232.505 87.5942 232.566 87.5942 232.627 87.5942C232.688 87.5942 232.75 87.5942 232.81 87.5942C232.871 87.5942 232.932 87.5942 232.993 87.5942C233.053 87.5942 233.113 87.5942 233.174 87.5942C233.234 87.5942 233.294 87.5942 233.354 87.5942C233.414 87.5942 233.474 87.5942 233.533 87.5942C233.593 87.5942 233.652 87.5942 233.711 87.5942C233.771 87.5942 233.83 87.5942 233.889 87.5942C233.948 87.5942 234.007 87.5942 234.065 87.5942C234.124 87.5942 234.182 87.5942 234.241 87.5942C234.299 87.5942 234.357 87.5942 234.415 87.5942C234.473 87.5942 234.531 87.5942 234.589 87.5942C234.646 87.5942 234.704 87.5942 234.761 87.5942C234.819 87.5942 234.876 87.5942 234.933 87.5942C234.99 87.5942 235.047 87.5942 235.104 87.5942C235.16 87.5942 235.217 87.5942 235.273 87.5942C235.33 87.5942 235.386 87.5942 235.442 87.5942C235.498 87.5942 235.554 87.5942 235.61 87.5942C235.666 87.5942 235.721 87.5942 235.777 87.5942C235.832 87.5942 235.888 87.5942 235.943 87.5942C235.998 87.5942 236.053 87.5942 236.108 87.5942C236.163 87.5942 236.217 87.5942 236.272 87.5942C236.327 87.5942 236.381 87.5942 236.435 87.5942C236.489 87.5942 236.543 87.5942 236.597 87.5942C236.651 87.5942 236.705 87.5942 236.759 87.5942C236.812 87.5942 236.866 87.5942 236.919 87.5942C236.972 87.5942 237.026 87.5942 237.079 87.5942C237.132 87.5942 237.184 87.5942 237.237 87.5942C237.29 87.5942 237.342 87.5942 237.395 87.5942C237.447 87.5942 237.499 87.5942 237.551 87.5942C237.604 87.5942 237.655 87.5942 237.707 87.5942C237.759 87.5942 237.811 87.5942 237.862 87.5942C237.914 87.5942 237.965 87.5942 238.016 87.5942C238.067 87.5942 238.118 87.5942 238.169 87.5942C238.22 87.5942 238.271 87.5942 238.321 87.5942C238.372 87.5942 238.422 87.5942 238.472 87.5942C238.523 87.5942 238.573 87.5942 238.623 87.5942C238.673 87.5942 238.722 87.5942 238.772 87.5942C238.822 87.5942 238.871 87.5942 238.921 87.5942C238.97 87.5942 239.019 87.5942 239.068 87.5942C239.117 87.5942 239.166 87.5942 239.215 87.5942C239.264 87.5942 239.312 87.5942 239.361 87.5942C239.409 87.5942 239.457 87.5942 239.506 87.5942C239.554 87.5942 239.602 87.5942 239.65 87.5942C239.697 87.5942 239.745 87.5942 239.793 87.5942C239.84 87.5942 239.888 87.5942 239.935 87.5942C239.982 87.5942 240.029 87.5942 240.076 87.5942C240.123 87.5942 240.17 87.5942 240.217 87.5942C240.263 87.5942 240.31 87.5942 240.356 87.5942C240.403 87.5942 240.449 87.5942 240.495 87.5942C240.541 87.5942 240.587 87.5942 240.633 87.5942C240.678 87.5942 240.724 87.5942 240.77 87.5942C240.815 87.5942 240.86 87.5942 240.906 87.5942C240.951 87.5942 240.996 87.5942 241.041 87.5942C241.086 87.5942 241.13 87.5942 241.175 87.5942C241.219 87.5942 241.264 87.5942 241.308 87.5942C241.353 87.5942 241.397 87.5942 241.441 87.5942C241.485 87.5942 241.529 87.5942 241.572 87.5942C241.616 87.5942 241.66 87.5942 241.703 87.5942C241.747 87.5942 241.79 87.5942 241.833 87.5942C241.876 87.5942 241.919 87.5942 241.962 87.5942C242.005 87.5942 242.048 87.5942 242.09 87.5942C242.133 87.5942 242.175 87.5942 242.217 87.5942C242.26 87.5942 242.302 87.5942 242.344 87.5942C242.386 87.5942 242.428 87.5942 242.469 87.5942C242.511 87.5942 242.553 87.5942 242.594 87.5942C242.636 87.5942 242.677 87.5942 242.718 87.5942C242.759 87.5942 242.8 87.5942 242.841 87.5942C242.882 87.5942 242.923 87.5942 242.963 87.5942C243.004 87.5942 243.044 87.5942 243.084 87.5942C243.125 87.5942 243.165 87.5942 243.205 87.5942C243.245 87.5942 243.285 87.5942 243.324 87.5942C243.364 87.5942 243.404 87.5942 243.443 87.5942C243.483 87.5942 243.522 87.5942 243.561 87.5942C243.6 87.5942 243.639 87.5942 243.678 87.5942C243.717 87.5942 243.756 87.5942 243.794 87.5942C243.833 87.5942 243.871 87.5942 243.91 87.5942C243.948 87.5942 243.986 87.5942 244.024 87.5942C244.062 87.5942 244.1 87.5942 244.138 87.5942C244.176 87.5942 244.213 87.5942 244.251 87.5942C244.288 87.5942 244.325 87.5942 244.363 87.5942C244.4 87.5942 244.437 87.5942 244.474 87.5942C244.511 87.5942 244.547 87.5942 244.584 87.5942C244.621 87.5942 244.657 87.5942 244.694 87.5942C244.73 87.5942 244.766 87.5942 244.802 87.5942C244.838 87.5942 244.874 87.5942 244.91 87.5942C244.946 87.5942 244.982 87.5942 245.017 87.5942C245.053 87.5942 245.088 87.5942 245.123 87.5942C245.159 87.5942 245.194 87.5942 245.229 87.5942C245.264 87.5942 245.299 87.5942 245.333 87.5942C245.368 87.5942 245.403 87.5942 245.437 87.5942C245.472 87.5942 245.506 87.5942 245.54 87.5942C245.574 87.5942 245.608 87.5942 245.642 87.5942C245.676 87.5942 245.71 87.5942 245.744 87.5942C245.777 87.5942 245.811 87.5942 245.844 87.5942C245.877 87.5942 245.911 87.5942 245.944 87.5942C245.977 87.5942 246.01 87.5942 246.043 87.5942C246.076 87.5942 246.108 87.5942 246.141 87.5942C246.173 87.5942 246.206 87.5942 246.238 87.5942C246.27 87.5942 246.303 87.5942 246.335 87.5942C246.367 87.5942 246.398 87.5942 246.43 87.5942C246.462 87.5942 246.494 87.5942 246.525 87.5942C246.557 87.5942 246.588 87.5942 246.619 87.5942C246.65 87.5942 246.682 87.5942 246.712 87.5942C246.743 87.5942 246.774 87.5942 246.805 87.5942C246.836 87.5942 246.866 87.5942 246.897 87.5942C246.927 87.5942 246.957 87.5942 246.988 87.5942C247.018 87.5942 247.048 87.5942 247.078 87.5942C247.108 87.5942 247.137 87.5942 247.167 87.5942C247.197 87.5942 247.226 87.5942 247.256 87.5942C247.285 87.5942 247.314 87.5942 247.343 87.5942C247.373 87.5942 247.402 87.5942 247.43 87.5942C247.459 87.5942 247.488 87.5942 247.517 87.5942C247.545 87.5942 247.574 87.5942 247.602 87.5942C247.63 87.5942 247.659 87.5942 247.687 87.5942C247.715 87.5942 247.743 87.5942 247.771 87.5942C247.798 87.5942 247.826 87.5942 247.854 87.5942C247.881 87.5942 247.909 87.5942 247.936 87.5942C247.963 87.5942 247.99 87.5942 248.018 87.5942C248.045 87.5942 248.072 87.5942 248.098 87.5942C248.125 87.5942 248.152 87.5942 248.178 87.5942C248.205 87.5942 248.231 87.5942 248.258 87.5942C248.284 87.5942 248.31 87.5942 248.336 87.5942C248.362 87.5942 248.388 87.5942 248.414 87.5942C248.44 87.5942 248.465 87.5942 248.491 87.5942C248.516 87.5942 248.542 87.5942 248.567 87.5942C248.592 87.5942 248.618 87.5942 248.643 87.5942C248.668 87.5942 248.692 87.5942 248.717 87.5942C248.742 87.5942 248.767 87.5942 248.791 87.5942C248.816 87.5942 248.84 87.5942 248.864 87.5942C248.889 87.5942 248.913 87.5942 248.937 87.5942C248.961 87.5942 248.985 87.5942 249.009 87.5942C249.032 87.5942 249.056 87.5942 249.08 87.5942C249.103 87.5942 249.126 87.5942 249.15 87.5942C249.173 87.5942 249.196 87.5942 249.219 87.5942C249.242 87.5942 249.265 87.5942 249.288 87.5942C249.311 87.5942 249.333 87.5942 249.356 87.5942C249.378 87.5942 249.401 87.5942 249.423 87.5942C249.445 87.5942 249.468 87.5942 249.49 87.5942C249.512 87.5942 249.534 87.5942 249.555 87.5942C249.577 87.5942 249.599 87.5942 249.621 87.5942C249.642 87.5942 249.664 87.5942 249.685 87.5942C249.706 87.5942 249.727 87.5942 249.748 87.5942C249.77 87.5942 249.79 87.5942 249.811 87.5942C249.832 87.5942 249.853 87.5942 249.873 87.5942C249.894 87.5942 249.914 87.5942 249.935 87.5942C249.955 87.5942 249.975 87.5942 249.996 87.5942C250.016 87.5942 250.036 87.5942 250.055 87.5942C250.075 87.5942 250.095 87.5942 250.115 87.5942C250.134 87.5942 250.154 87.5942 250.173 87.5942C250.193 87.5942 250.212 87.5942 250.231 87.5942C250.25 87.5942 250.269 87.5942 250.288 87.5942C250.307 87.5942 250.326 87.5942 250.345 87.5942C250.363 87.5942 250.382 87.5942 250.4 87.5942C250.419 87.5942 250.437 87.5942 250.455 87.5942C250.473 87.5942 250.492 87.5942 250.509 87.5942C250.527 87.5942 250.545 87.5942 250.563 87.5942C250.581 87.5942 250.598 87.5942 250.616 87.5942C250.633 87.5942 250.651 87.5942 250.668 87.5942C250.685 87.5942 250.702 87.5942 250.719 87.5942C250.737 87.5942 250.753 87.5942 250.77 87.5942C250.787 87.5942 250.804 87.5942 250.82 87.5942C250.837 87.5942 250.853 87.5942 250.87 87.5942C250.886 87.5942 250.902 87.5942 250.918 87.5942C250.934 87.5942 250.95 87.5942 250.966 87.5942C250.982 87.5942 250.998 87.5942 251.014 87.5942C251.029 87.5942 251.045 87.5942 251.06 87.5942C251.076 87.5942 251.091 87.5942 251.106 87.5942C251.121 87.5942 251.136 87.5942 251.151 87.5942C251.166 87.5942 251.181 87.5942 251.196 87.5942C251.21 87.5942 251.225 87.5942 251.24 87.5942C251.254 87.5942 251.269 87.5942 251.283 87.5942C251.297 87.5942 251.311 87.5942 251.325 87.5942C251.339 87.5942 251.353 87.5942 251.367 87.5942C251.381 87.5942 251.395 87.5942 251.408 87.5942C251.422 87.5942 251.435 87.5942 251.449 87.5942C251.462 87.5942 251.475 87.5942 251.488 87.5942C251.502 87.5942 251.515 87.5942 251.528 87.5942C251.541 87.5942 251.553 87.5942 251.566 87.5942C251.579 87.5942 251.591 87.5942 251.604 87.5942C251.616 87.5942 251.629 87.5942 251.641 87.5942C251.653 87.5942 251.665 87.5942 251.677 87.5942C251.689 87.5942 251.701 87.5942 251.713 87.5942C251.725 87.5942 251.737 87.5942 251.748 87.5942C251.76 87.5942 251.771 87.5942 251.783 87.5942C251.794 87.5942 251.805 87.5942 251.817 87.5942C251.828 87.5942 251.839 87.5942 251.85 87.5942C251.861 87.5942 251.872 87.5942 251.882 87.5942C251.893 87.5942 251.904 87.5942 251.914 87.5942C251.925 87.5942 251.935 87.5942 251.945 87.5942C251.956 87.5942 251.966 87.5942 251.976 87.5942C251.986 87.5942 251.996 87.5942 252.006 87.5942C252.016 87.5942 252.025 87.5942 252.035 87.5942C252.045 87.5942 252.054 87.5942 252.064 87.5942C252.073 87.5942 252.082 87.5942 252.092 87.5942C252.101 87.5942 252.11 87.5942 252.119 87.5942C252.128 87.5942 252.137 87.5942 252.146 87.5942C252.155 87.5942 252.163 87.5942 252.172 87.5942C252.18 87.5942 252.189 87.5942 252.197 87.5942C252.206 87.5942 252.214 87.5942 252.222 87.5942C252.23 87.5942 252.238 87.5942 252.246 87.5942C252.254 87.5942 252.262 87.5942 252.27 87.5942C252.277 87.5942 252.285 87.5942 252.293 87.5942C252.3 87.5942 252.308 87.5942 252.315 87.5942C252.322 87.5942 252.329 87.5942 252.337 87.5942C252.344 87.5942 252.351 87.5942 252.358 87.5942C252.365 87.5942 252.371 87.5942 252.378 87.5942C252.385 87.5942 252.391 87.5942 252.398 87.5942C252.404 87.5942 252.411 87.5942 252.417 87.5942V85.5942V83.5942C252.411 83.5942 252.404 83.5942 252.398 83.5942C252.391 83.5942 252.385 83.5942 252.378 83.5942C252.371 83.5942 252.365 83.5942 252.358 83.5942C252.351 83.5942 252.344 83.5942 252.337 83.5942C252.329 83.5942 252.322 83.5942 252.315 83.5942C252.308 83.5942 252.3 83.5942 252.293 83.5942C252.285 83.5942 252.277 83.5942 252.27 83.5942C252.262 83.5942 252.254 83.5942 252.246 83.5942C252.238 83.5942 252.23 83.5942 252.222 83.5942C252.214 83.5942 252.206 83.5942 252.197 83.5942C252.189 83.5942 252.18 83.5942 252.172 83.5942C252.163 83.5942 252.155 83.5942 252.146 83.5942C252.137 83.5942 252.128 83.5942 252.119 83.5942C252.11 83.5942 252.101 83.5942 252.092 83.5942C252.082 83.5942 252.073 83.5942 252.064 83.5942C252.054 83.5942 252.045 83.5942 252.035 83.5942C252.025 83.5942 252.016 83.5942 252.006 83.5942C251.996 83.5942 251.986 83.5942 251.976 83.5942C251.966 83.5942 251.956 83.5942 251.945 83.5942C251.935 83.5942 251.925 83.5942 251.914 83.5942C251.904 83.5942 251.893 83.5942 251.882 83.5942C251.872 83.5942 251.861 83.5942 251.85 83.5942C251.839 83.5942 251.828 83.5942 251.817 83.5942C251.805 83.5942 251.794 83.5942 251.783 83.5942C251.771 83.5942 251.76 83.5942 251.748 83.5942C251.737 83.5942 251.725 83.5942 251.713 83.5942C251.701 83.5942 251.689 83.5942 251.677 83.5942C251.665 83.5942 251.653 83.5942 251.641 83.5942C251.629 83.5942 251.616 83.5942 251.604 83.5942C251.591 83.5942 251.579 83.5942 251.566 83.5942C251.553 83.5942 251.541 83.5942 251.528 83.5942C251.515 83.5942 251.502 83.5942 251.488 83.5942C251.475 83.5942 251.462 83.5942 251.449 83.5942C251.435 83.5942 251.422 83.5942 251.408 83.5942C251.395 83.5942 251.381 83.5942 251.367 83.5942C251.353 83.5942 251.339 83.5942 251.325 83.5942C251.311 83.5942 251.297 83.5942 251.283 83.5942C251.269 83.5942 251.254 83.5942 251.24 83.5942C251.225 83.5942 251.21 83.5942 251.196 83.5942C251.181 83.5942 251.166 83.5942 251.151 83.5942C251.136 83.5942 251.121 83.5942 251.106 83.5942C251.091 83.5942 251.076 83.5942 251.06 83.5942C251.045 83.5942 251.029 83.5942 251.014 83.5942C250.998 83.5942 250.982 83.5942 250.966 83.5942C250.95 83.5942 250.934 83.5942 250.918 83.5942C250.902 83.5942 250.886 83.5942 250.87 83.5942C250.853 83.5942 250.837 83.5942 250.82 83.5942C250.804 83.5942 250.787 83.5942 250.77 83.5942C250.753 83.5942 250.737 83.5942 250.719 83.5942C250.702 83.5942 250.685 83.5942 250.668 83.5942C250.651 83.5942 250.633 83.5942 250.616 83.5942C250.598 83.5942 250.581 83.5942 250.563 83.5942C250.545 83.5942 250.527 83.5942 250.509 83.5942C250.492 83.5942 250.473 83.5942 250.455 83.5942C250.437 83.5942 250.419 83.5942 250.4 83.5942C250.382 83.5942 250.363 83.5942 250.345 83.5942C250.326 83.5942 250.307 83.5942 250.288 83.5942C250.269 83.5942 250.25 83.5942 250.231 83.5942C250.212 83.5942 250.193 83.5942 250.173 83.5942C250.154 83.5942 250.134 83.5942 250.115 83.5942C250.095 83.5942 250.075 83.5942 250.055 83.5942C250.036 83.5942 250.016 83.5942 249.996 83.5942C249.975 83.5942 249.955 83.5942 249.935 83.5942C249.914 83.5942 249.894 83.5942 249.873 83.5942C249.853 83.5942 249.832 83.5942 249.811 83.5942C249.79 83.5942 249.77 83.5942 249.748 83.5942C249.727 83.5942 249.706 83.5942 249.685 83.5942C249.664 83.5942 249.642 83.5942 249.621 83.5942C249.599 83.5942 249.577 83.5942 249.555 83.5942C249.534 83.5942 249.512 83.5942 249.49 83.5942C249.468 83.5942 249.445 83.5942 249.423 83.5942C249.401 83.5942 249.378 83.5942 249.356 83.5942C249.333 83.5942 249.311 83.5942 249.288 83.5942C249.265 83.5942 249.242 83.5942 249.219 83.5942C249.196 83.5942 249.173 83.5942 249.15 83.5942C249.126 83.5942 249.103 83.5942 249.08 83.5942C249.056 83.5942 249.032 83.5942 249.009 83.5942C248.985 83.5942 248.961 83.5942 248.937 83.5942C248.913 83.5942 248.889 83.5942 248.864 83.5942C248.84 83.5942 248.816 83.5942 248.791 83.5942C248.767 83.5942 248.742 83.5942 248.717 83.5942C248.692 83.5942 248.668 83.5942 248.643 83.5942C248.618 83.5942 248.592 83.5942 248.567 83.5942C248.542 83.5942 248.516 83.5942 248.491 83.5942C248.465 83.5942 248.44 83.5942 248.414 83.5942C248.388 83.5942 248.362 83.5942 248.336 83.5942C248.31 83.5942 248.284 83.5942 248.258 83.5942C248.231 83.5942 248.205 83.5942 248.178 83.5942C248.152 83.5942 248.125 83.5942 248.098 83.5942C248.072 83.5942 248.045 83.5942 248.018 83.5942C247.99 83.5942 247.963 83.5942 247.936 83.5942C247.909 83.5942 247.881 83.5942 247.854 83.5942C247.826 83.5942 247.798 83.5942 247.771 83.5942C247.743 83.5942 247.715 83.5942 247.687 83.5942C247.659 83.5942 247.63 83.5942 247.602 83.5942C247.574 83.5942 247.545 83.5942 247.517 83.5942C247.488 83.5942 247.459 83.5942 247.43 83.5942C247.402 83.5942 247.373 83.5942 247.343 83.5942C247.314 83.5942 247.285 83.5942 247.256 83.5942C247.226 83.5942 247.197 83.5942 247.167 83.5942C247.137 83.5942 247.108 83.5942 247.078 83.5942C247.048 83.5942 247.018 83.5942 246.988 83.5942C246.957 83.5942 246.927 83.5942 246.897 83.5942C246.866 83.5942 246.836 83.5942 246.805 83.5942C246.774 83.5942 246.743 83.5942 246.712 83.5942C246.682 83.5942 246.65 83.5942 246.619 83.5942C246.588 83.5942 246.557 83.5942 246.525 83.5942C246.494 83.5942 246.462 83.5942 246.43 83.5942C246.398 83.5942 246.367 83.5942 246.335 83.5942C246.303 83.5942 246.27 83.5942 246.238 83.5942C246.206 83.5942 246.173 83.5942 246.141 83.5942C246.108 83.5942 246.076 83.5942 246.043 83.5942C246.01 83.5942 245.977 83.5942 245.944 83.5942C245.911 83.5942 245.877 83.5942 245.844 83.5942C245.811 83.5942 245.777 83.5942 245.744 83.5942C245.71 83.5942 245.676 83.5942 245.642 83.5942C245.608 83.5942 245.574 83.5942 245.54 83.5942C245.506 83.5942 245.472 83.5942 245.437 83.5942C245.403 83.5942 245.368 83.5942 245.333 83.5942C245.299 83.5942 245.264 83.5942 245.229 83.5942C245.194 83.5942 245.159 83.5942 245.123 83.5942C245.088 83.5942 245.053 83.5942 245.017 83.5942C244.982 83.5942 244.946 83.5942 244.91 83.5942C244.874 83.5942 244.838 83.5942 244.802 83.5942C244.766 83.5942 244.73 83.5942 244.694 83.5942C244.657 83.5942 244.621 83.5942 244.584 83.5942C244.547 83.5942 244.511 83.5942 244.474 83.5942C244.437 83.5942 244.4 83.5942 244.363 83.5942C244.325 83.5942 244.288 83.5942 244.251 83.5942C244.213 83.5942 244.176 83.5942 244.138 83.5942C244.1 83.5942 244.062 83.5942 244.024 83.5942C243.986 83.5942 243.948 83.5942 243.91 83.5942C243.871 83.5942 243.833 83.5942 243.794 83.5942C243.756 83.5942 243.717 83.5942 243.678 83.5942C243.639 83.5942 243.6 83.5942 243.561 83.5942C243.522 83.5942 243.483 83.5942 243.443 83.5942C243.404 83.5942 243.364 83.5942 243.324 83.5942C243.285 83.5942 243.245 83.5942 243.205 83.5942C243.165 83.5942 243.125 83.5942 243.084 83.5942C243.044 83.5942 243.004 83.5942 242.963 83.5942C242.923 83.5942 242.882 83.5942 242.841 83.5942C242.8 83.5942 242.759 83.5942 242.718 83.5942C242.677 83.5942 242.636 83.5942 242.594 83.5942C242.553 83.5942 242.511 83.5942 242.469 83.5942C242.428 83.5942 242.386 83.5942 242.344 83.5942C242.302 83.5942 242.26 83.5942 242.217 83.5942C242.175 83.5942 242.133 83.5942 242.09 83.5942C242.048 83.5942 242.005 83.5942 241.962 83.5942C241.919 83.5942 241.876 83.5942 241.833 83.5942C241.79 83.5942 241.747 83.5942 241.703 83.5942C241.66 83.5942 241.616 83.5942 241.572 83.5942C241.529 83.5942 241.485 83.5942 241.441 83.5942C241.397 83.5942 241.353 83.5942 241.308 83.5942C241.264 83.5942 241.219 83.5942 241.175 83.5942C241.13 83.5942 241.086 83.5942 241.041 83.5942C240.996 83.5942 240.951 83.5942 240.906 83.5942C240.86 83.5942 240.815 83.5942 240.77 83.5942C240.724 83.5942 240.678 83.5942 240.633 83.5942C240.587 83.5942 240.541 83.5942 240.495 83.5942C240.449 83.5942 240.403 83.5942 240.356 83.5942C240.31 83.5942 240.263 83.5942 240.217 83.5942C240.17 83.5942 240.123 83.5942 240.076 83.5942C240.029 83.5942 239.982 83.5942 239.935 83.5942C239.888 83.5942 239.84 83.5942 239.793 83.5942C239.745 83.5942 239.697 83.5942 239.65 83.5942C239.602 83.5942 239.554 83.5942 239.506 83.5942C239.457 83.5942 239.409 83.5942 239.361 83.5942C239.312 83.5942 239.264 83.5942 239.215 83.5942C239.166 83.5942 239.117 83.5942 239.068 83.5942C239.019 83.5942 238.97 83.5942 238.921 83.5942C238.871 83.5942 238.822 83.5942 238.772 83.5942C238.722 83.5942 238.673 83.5942 238.623 83.5942C238.573 83.5942 238.523 83.5942 238.472 83.5942C238.422 83.5942 238.372 83.5942 238.321 83.5942C238.271 83.5942 238.22 83.5942 238.169 83.5942C238.118 83.5942 238.067 83.5942 238.016 83.5942C237.965 83.5942 237.914 83.5942 237.862 83.5942C237.811 83.5942 237.759 83.5942 237.707 83.5942C237.655 83.5942 237.604 83.5942 237.551 83.5942C237.499 83.5942 237.447 83.5942 237.395 83.5942C237.342 83.5942 237.29 83.5942 237.237 83.5942C237.184 83.5942 237.132 83.5942 237.079 83.5942C237.026 83.5942 236.972 83.5942 236.919 83.5942C236.866 83.5942 236.812 83.5942 236.759 83.5942C236.705 83.5942 236.651 83.5942 236.597 83.5942C236.543 83.5942 236.489 83.5942 236.435 83.5942C236.381 83.5942 236.327 83.5942 236.272 83.5942C236.217 83.5942 236.163 83.5942 236.108 83.5942C236.053 83.5942 235.998 83.5942 235.943 83.5942C235.888 83.5942 235.832 83.5942 235.777 83.5942C235.721 83.5942 235.666 83.5942 235.61 83.5942C235.554 83.5942 235.498 83.5942 235.442 83.5942C235.386 83.5942 235.33 83.5942 235.273 83.5942C235.217 83.5942 235.16 83.5942 235.104 83.5942C235.047 83.5942 234.99 83.5942 234.933 83.5942C234.876 83.5942 234.819 83.5942 234.761 83.5942C234.704 83.5942 234.646 83.5942 234.589 83.5942C234.531 83.5942 234.473 83.5942 234.415 83.5942C234.357 83.5942 234.299 83.5942 234.241 83.5942C234.182 83.5942 234.124 83.5942 234.065 83.5942C234.007 83.5942 233.948 83.5942 233.889 83.5942C233.83 83.5942 233.771 83.5942 233.711 83.5942C233.652 83.5942 233.593 83.5942 233.533 83.5942C233.474 83.5942 233.414 83.5942 233.354 83.5942C233.294 83.5942 233.234 83.5942 233.174 83.5942C233.113 83.5942 233.053 83.5942 232.993 83.5942C232.932 83.5942 232.871 83.5942 232.81 83.5942C232.75 83.5942 232.688 83.5942 232.627 83.5942C232.566 83.5942 232.505 83.5942 232.443 83.5942C232.382 83.5942 232.32 83.5942 232.258 83.5942C232.196 83.5942 232.134 83.5942 232.072 83.5942C232.01 83.5942 231.948 83.5942 231.885 83.5942C231.823 83.5942 231.76 83.5942 231.697 83.5942C231.634 83.5942 231.571 83.5942 231.508 83.5942C231.445 83.5942 231.382 83.5942 231.318 83.5942C231.255 83.5942 231.191 83.5942 231.127 83.5942C231.064 83.5942 231 83.5942 230.936 83.5942C230.871 83.5942 230.807 83.5942 230.743 83.5942C230.678 83.5942 230.614 83.5942 230.549 83.5942C230.484 83.5942 230.419 83.5942 230.354 83.5942C230.289 83.5942 230.224 83.5942 230.158 83.5942C230.093 83.5942 230.027 83.5942 229.961 83.5942C229.896 83.5942 229.83 83.5942 229.764 83.5942C229.698 83.5942 229.631 83.5942 229.565 83.5942C229.498 83.5942 229.432 83.5942 229.365 83.5942C229.298 83.5942 229.231 83.5942 229.164 83.5942C229.097 83.5942 229.03 83.5942 228.962 83.5942C228.895 83.5942 228.827 83.5942 228.76 83.5942C228.692 83.5942 228.624 83.5942 228.556 83.5942C228.488 83.5942 228.42 83.5942 228.351 83.5942C228.283 83.5942 228.214 83.5942 228.145 83.5942C228.077 83.5942 228.008 83.5942 227.939 83.5942C227.869 83.5942 227.8 83.5942 227.731 83.5942C227.661 83.5942 227.592 83.5942 227.522 83.5942C227.452 83.5942 227.382 83.5942 227.312 83.5942C227.242 83.5942 227.172 83.5942 227.101 83.5942C227.031 83.5942 226.96 83.5942 226.889 83.5942C226.819 83.5942 226.748 83.5942 226.677 83.5942C226.605 83.5942 226.534 83.5942 226.463 83.5942C226.391 83.5942 226.32 83.5942 226.248 83.5942C226.176 83.5942 226.104 83.5942 226.032 83.5942C225.96 83.5942 225.887 83.5942 225.815 83.5942C225.742 83.5942 225.67 83.5942 225.597 83.5942C225.524 83.5942 225.451 83.5942 225.378 83.5942C225.305 83.5942 225.231 83.5942 225.158 83.5942C225.084 83.5942 225.011 83.5942 224.937 83.5942C224.863 83.5942 224.789 83.5942 224.715 83.5942C224.641 83.5942 224.566 83.5942 224.492 83.5942C224.417 83.5942 224.342 83.5942 224.267 83.5942C224.193 83.5942 224.118 83.5942 224.042 83.5942C223.967 83.5942 223.892 83.5942 223.816 83.5942C223.74 83.5942 223.665 83.5942 223.589 83.5942C223.513 83.5942 223.437 83.5942 223.36 83.5942C223.284 83.5942 223.208 83.5942 223.131 83.5942C223.054 83.5942 222.978 83.5942 222.901 83.5942C222.824 83.5942 222.747 83.5942 222.669 83.5942C222.592 83.5942 222.514 83.5942 222.437 83.5942C222.359 83.5942 222.281 83.5942 222.203 83.5942C222.125 83.5942 222.047 83.5942 221.969 83.5942C221.89 83.5942 221.812 83.5942 221.733 83.5942C221.654 83.5942 221.575 83.5942 221.496 83.5942C221.417 83.5942 221.338 83.5942 221.258 83.5942C221.179 83.5942 221.099 83.5942 221.02 83.5942C220.94 83.5942 220.86 83.5942 220.78 83.5942C220.7 83.5942 220.619 83.5942 220.539 83.5942C220.458 83.5942 220.378 83.5942 220.297 83.5942C220.216 83.5942 220.135 83.5942 220.054 83.5942C219.972 83.5942 219.891 83.5942 219.81 83.5942C219.728 83.5942 219.646 83.5942 219.564 83.5942C219.482 83.5942 219.4 83.5942 219.318 83.5942C219.236 83.5942 219.153 83.5942 219.071 83.5942C218.988 83.5942 218.905 83.5942 218.822 83.5942C218.739 83.5942 218.656 83.5942 218.573 83.5942C218.489 83.5942 218.406 83.5942 218.322 83.5942C218.238 83.5942 218.155 83.5942 218.07 83.5942C217.986 83.5942 217.902 83.5942 217.818 83.5942C217.733 83.5942 217.649 83.5942 217.564 83.5942C217.479 83.5942 217.394 83.5942 217.309 83.5942C217.224 83.5942 217.139 83.5942 217.053 83.5942C216.967 83.5942 216.882 83.5942 216.796 83.5942C216.71 83.5942 216.624 83.5942 216.538 83.5942C216.452 83.5942 216.365 83.5942 216.278 83.5942C216.192 83.5942 216.105 83.5942 216.018 83.5942C215.931 83.5942 215.844 83.5942 215.757 83.5942C215.669 83.5942 215.582 83.5942 215.494 83.5942C215.406 83.5942 215.319 83.5942 215.231 83.5942C215.142 83.5942 215.054 83.5942 214.966 83.5942C214.877 83.5942 214.789 83.5942 214.7 83.5942C214.611 83.5942 214.522 83.5942 214.433 83.5942C214.344 83.5942 214.254 83.5942 214.165 83.5942C214.075 83.5942 213.986 83.5942 213.896 83.5942C213.806 83.5942 213.716 83.5942 213.626 83.5942C213.535 83.5942 213.445 83.5942 213.354 83.5942C213.263 83.5942 213.173 83.5942 213.082 83.5942C212.991 83.5942 212.899 83.5942 212.808 83.5942C212.717 83.5942 212.625 83.5942 212.533 83.5942C212.442 83.5942 212.35 83.5942 212.258 83.5942C212.165 83.5942 212.073 83.5942 211.981 83.5942C211.888 83.5942 211.795 83.5942 211.703 83.5942C211.61 83.5942 211.517 83.5942 211.423 83.5942C211.33 83.5942 211.237 83.5942 211.143 83.5942C211.049 83.5942 210.956 83.5942 210.862 83.5942C210.768 83.5942 210.673 83.5942 210.579 83.5942C210.485 83.5942 210.39 83.5942 210.295 83.5942C210.201 83.5942 210.106 83.5942 210.011 83.5942C209.915 83.5942 209.82 83.5942 209.725 83.5942C209.629 83.5942 209.533 83.5942 209.438 83.5942C209.342 83.5942 209.246 83.5942 209.149 83.5942C209.053 83.5942 208.957 83.5942 208.86 83.5942C208.763 83.5942 208.666 83.5942 208.569 83.5942C208.472 83.5942 208.375 83.5942 208.278 83.5942C208.18 83.5942 208.083 83.5942 207.985 83.5942C207.887 83.5942 207.789 83.5942 207.691 83.5942C207.593 83.5942 207.495 83.5942 207.396 83.5942C207.298 83.5942 207.199 83.5942 207.1 83.5942C207.001 83.5942 206.902 83.5942 206.803 83.5942C206.703 83.5942 206.604 83.5942 206.504 83.5942C206.404 83.5942 206.304 83.5942 206.204 83.5942C206.104 83.5942 206.004 83.5942 205.904 83.5942C205.803 83.5942 205.702 83.5942 205.602 83.5942C205.501 83.5942 205.4 83.5942 205.299 83.5942C205.197 83.5942 205.096 83.5942 204.994 83.5942C204.893 83.5942 204.791 83.5942 204.689 83.5942C204.587 83.5942 204.485 83.5942 204.382 83.5942C204.28 83.5942 204.177 83.5942 204.074 83.5942C203.972 83.5942 203.869 83.5942 203.766 83.5942C203.662 83.5942 203.559 83.5942 203.455 83.5942C203.352 83.5942 203.248 83.5942 203.144 83.5942C203.04 83.5942 202.936 83.5942 202.832 83.5942C202.727 83.5942 202.623 83.5942 202.518 83.5942C202.413 83.5942 202.308 83.5942 202.203 83.5942C202.098 83.5942 201.993 83.5942 201.887 83.5942C201.782 83.5942 201.676 83.5942 201.57 83.5942C201.464 83.5942 201.358 83.5942 201.252 83.5942C201.146 83.5942 201.039 83.5942 200.932 83.5942C200.826 83.5942 200.719 83.5942 200.612 83.5942C200.505 83.5942 200.397 83.5942 200.29 83.5942C200.182 83.5942 200.075 83.5942 199.967 83.5942C199.859 83.5942 199.751 83.5942 199.643 83.5942C199.534 83.5942 199.426 83.5942 199.317 83.5942C199.209 83.5942 199.1 83.5942 198.991 83.5942C198.882 83.5942 198.772 83.5942 198.663 83.5942C198.553 83.5942 198.444 83.5942 198.334 83.5942C198.224 83.5942 198.114 83.5942 198.004 83.5942C197.893 83.5942 197.783 83.5942 197.672 83.5942C197.562 83.5942 197.451 83.5942 197.34 83.5942C197.229 83.5942 197.117 83.5942 197.006 83.5942C196.895 83.5942 196.783 83.5942 196.671 83.5942C196.559 83.5942 196.447 83.5942 196.335 83.5942C196.223 83.5942 196.11 83.5942 195.997 83.5942C195.885 83.5942 195.772 83.5942 195.659 83.5942C195.546 83.5942 195.432 83.5942 195.319 83.5942C195.206 83.5942 195.092 83.5942 194.978 83.5942C194.864 83.5942 194.75 83.5942 194.636 83.5942C194.521 83.5942 194.407 83.5942 194.292 83.5942C194.178 83.5942 194.063 83.5942 193.948 83.5942C193.833 83.5942 193.717 83.5942 193.602 83.5942C193.486 83.5942 193.371 83.5942 193.255 83.5942C193.139 83.5942 193.023 83.5942 192.906 83.5942C192.79 83.5942 192.674 83.5942 192.557 83.5942C192.44 83.5942 192.323 83.5942 192.206 83.5942C192.089 83.5942 191.972 83.5942 191.854 83.5942C191.737 83.5942 191.619 83.5942 191.501 83.5942C191.383 83.5942 191.265 83.5942 191.146 83.5942C191.028 83.5942 190.909 83.5942 190.791 83.5942C190.672 83.5942 190.553 83.5942 190.434 83.5942C190.315 83.5942 190.195 83.5942 190.076 83.5942C189.956 83.5942 189.836 83.5942 189.716 83.5942C189.596 83.5942 189.476 83.5942 189.356 83.5942C189.235 83.5942 189.115 83.5942 188.994 83.5942C188.873 83.5942 188.752 83.5942 188.631 83.5942C188.509 83.5942 188.388 83.5942 188.266 83.5942C188.145 83.5942 188.023 83.5942 187.901 83.5942C187.779 83.5942 187.656 83.5942 187.534 83.5942C187.411 83.5942 187.289 83.5942 187.166 83.5942C187.043 83.5942 186.92 83.5942 186.797 83.5942C186.673 83.5942 186.55 83.5942 186.426 83.5942C186.302 83.5942 186.178 83.5942 186.054 83.5942C185.93 83.5942 185.806 83.5942 185.681 83.5942C185.556 83.5942 185.432 83.5942 185.307 83.5942C185.182 83.5942 185.057 83.5942 184.931 83.5942C184.806 83.5942 184.68 83.5942 184.554 83.5942C184.428 83.5942 184.302 83.5942 184.176 83.5942C184.05 83.5942 183.923 83.5942 183.797 83.5942C183.67 83.5942 183.543 83.5942 183.416 83.5942C183.289 83.5942 183.162 83.5942 183.034 83.5942C182.907 83.5942 182.779 83.5942 182.651 83.5942C182.523 83.5942 182.395 83.5942 182.267 83.5942C182.138 83.5942 182.01 83.5942 181.881 83.5942C181.752 83.5942 181.623 83.5942 181.494 83.5942C181.365 83.5942 181.235 83.5942 181.106 83.5942C180.976 83.5942 180.846 83.5942 180.716 83.5942C180.586 83.5942 180.456 83.5942 180.325 83.5942C180.195 83.5942 180.064 83.5942 179.933 83.5942C179.802 83.5942 179.671 83.5942 179.54 83.5942C179.408 83.5942 179.277 83.5942 179.145 83.5942C179.013 83.5942 178.881 83.5942 178.749 83.5942C178.617 83.5942 178.484 83.5942 178.352 83.5942C178.219 83.5942 178.086 83.5942 177.953 83.5942C177.82 83.5942 177.687 83.5942 177.553 83.5942C177.42 83.5942 177.286 83.5942 177.152 83.5942C177.018 83.5942 176.884 83.5942 176.75 83.5942C176.616 83.5942 176.481 83.5942 176.346 83.5942C176.211 83.5942 176.076 83.5942 175.941 83.5942C175.806 83.5942 175.671 83.5942 175.535 83.5942C175.399 83.5942 175.263 83.5942 175.127 83.5942C174.991 83.5942 174.855 83.5942 174.718 83.5942C174.582 83.5942 174.445 83.5942 174.308 83.5942C174.171 83.5942 174.034 83.5942 173.897 83.5942C173.759 83.5942 173.622 83.5942 173.484 83.5942C173.346 83.5942 173.208 83.5942 173.07 83.5942C172.932 83.5942 172.793 83.5942 172.654 83.5942C172.516 83.5942 172.377 83.5942 172.238 83.5942C172.099 83.5942 171.959 83.5942 171.82 83.5942C171.68 83.5942 171.54 83.5942 171.4 83.5942C171.26 83.5942 171.12 83.5942 170.98 83.5942C170.839 83.5942 170.698 83.5942 170.558 83.5942C170.417 83.5942 170.276 83.5942 170.134 83.5942C169.993 83.5942 169.851 83.5942 169.71 83.5942C169.568 83.5942 169.426 83.5942 169.284 83.5942C169.141 83.5942 168.999 83.5942 168.856 83.5942C168.714 83.5942 168.571 83.5942 168.428 83.5942C168.285 83.5942 168.141 83.5942 167.998 83.5942C167.854 83.5942 167.71 83.5942 167.566 83.5942C167.422 83.5942 167.278 83.5942 167.134 83.5942C166.989 83.5942 166.845 83.5942 166.7 83.5942C166.555 83.5942 166.41 83.5942 166.265 83.5942C166.119 83.5942 165.974 83.5942 165.828 83.5942C165.682 83.5942 165.536 83.5942 165.39 83.5942C165.244 83.5942 165.097 83.5942 164.951 83.5942C164.804 83.5942 164.657 83.5942 164.51 83.5942C164.363 83.5942 164.216 83.5942 164.068 83.5942C163.92 83.5942 163.773 83.5942 163.625 83.5942C163.477 83.5942 163.328 83.5942 163.18 83.5942C163.032 83.5942 162.883 83.5942 162.734 83.5942C162.585 83.5942 162.436 83.5942 162.287 83.5942C162.137 83.5942 161.988 83.5942 161.838 83.5942C161.688 83.5942 161.538 83.5942 161.388 83.5942C161.238 83.5942 161.087 83.5942 160.936 83.5942C160.786 83.5942 160.635 83.5942 160.484 83.5942C160.332 83.5942 160.181 83.5942 160.029 83.5942C159.878 83.5942 159.726 83.5942 159.574 83.5942C159.422 83.5942 159.269 83.5942 159.117 83.5942C158.964 83.5942 158.812 83.5942 158.659 83.5942C158.506 83.5942 158.353 83.5942 158.199 83.5942C158.046 83.5942 157.892 83.5942 157.738 83.5942C157.584 83.5942 157.43 83.5942 157.276 83.5942C157.121 83.5942 156.967 83.5942 156.812 83.5942C156.657 83.5942 156.502 83.5942 156.347 83.5942C156.192 83.5942 156.036 83.5942 155.88 83.5942C155.725 83.5942 155.569 83.5942 155.413 83.5942C155.256 83.5942 155.1 83.5942 154.943 83.5942C154.787 83.5942 154.63 83.5942 154.473 83.5942C154.316 83.5942 154.158 83.5942 154.001 83.5942C153.843 83.5942 153.686 83.5942 153.527 83.5942C153.369 83.5942 153.211 83.5942 153.053 83.5942C152.894 83.5942 152.736 83.5942 152.577 83.5942C152.418 83.5942 152.258 83.5942 152.099 83.5942C151.94 83.5942 151.78 83.5942 151.62 83.5942C151.46 83.5942 151.3 83.5942 151.14 83.5942C150.98 83.5942 150.819 83.5942 150.658 83.5942C150.497 83.5942 150.336 83.5942 150.175 83.5942C150.014 83.5942 149.852 83.5942 149.691 83.5942C149.529 83.5942 149.367 83.5942 149.205 83.5942C149.042 83.5942 148.88 83.5942 148.717 83.5942C148.555 83.5942 148.392 83.5942 148.229 83.5942C148.066 83.5942 147.902 83.5942 147.739 83.5942C147.575 83.5942 147.411 83.5942 147.247 83.5942C147.083 83.5942 146.919 83.5942 146.754 83.5942C146.59 83.5942 146.425 83.5942 146.26 83.5942C146.095 83.5942 145.93 83.5942 145.764 83.5942C145.599 83.5942 145.433 83.5942 145.267 83.5942C145.101 83.5942 144.935 83.5942 144.769 83.5942C144.602 83.5942 144.435 83.5942 144.269 83.5942C144.102 83.5942 143.935 83.5942 143.767 83.5942C143.6 83.5942 143.432 83.5942 143.264 83.5942C143.097 83.5942 142.928 83.5942 142.76 83.5942C142.592 83.5942 142.423 83.5942 142.255 83.5942C142.086 83.5942 141.917 83.5942 141.747 83.5942C141.578 83.5942 141.409 83.5942 141.239 83.5942C141.069 83.5942 140.899 83.5942 140.729 83.5942C140.559 83.5942 140.388 83.5942 140.218 83.5942C140.047 83.5942 139.876 83.5942 139.705 83.5942C139.534 83.5942 139.362 83.5942 139.191 83.5942C139.019 83.5942 138.847 83.5942 138.675 83.5942C138.503 83.5942 138.331 83.5942 138.158 83.5942C137.986 83.5942 137.813 83.5942 137.64 83.5942C137.467 83.5942 137.293 83.5942 137.12 83.5942C136.946 83.5942 136.772 83.5942 136.598 83.5942C136.424 83.5942 136.25 83.5942 136.075 83.5942C135.901 83.5942 135.726 83.5942 135.551 83.5942C135.376 83.5942 135.201 83.5942 135.025 83.5942C134.85 83.5942 134.674 83.5942 134.498 83.5942C134.322 83.5942 134.146 83.5942 133.97 83.5942C133.793 83.5942 133.617 83.5942 133.44 83.5942C133.263 83.5942 133.086 83.5942 132.908 83.5942C132.731 83.5942 132.553 83.5942 132.375 83.5942C132.197 83.5942 132.019 83.5942 131.841 83.5942C131.662 83.5942 131.484 83.5942 131.305 83.5942C131.126 83.5942 130.947 83.5942 130.768 83.5942C130.588 83.5942 130.409 83.5942 130.229 83.5942C130.049 83.5942 129.869 83.5942 129.688 83.5942C129.508 83.5942 129.328 83.5942 129.147 83.5942C128.966 83.5942 128.785 83.5942 128.604 83.5942C128.422 83.5942 128.241 83.5942 128.059 83.5942C127.877 83.5942 127.695 83.5942 127.513 83.5942C127.33 83.5942 127.148 83.5942 126.965 83.5942C126.782 83.5942 126.599 83.5942 126.416 83.5942C126.233 83.5942 126.049 83.5942 125.866 83.5942C125.682 83.5942 125.498 83.5942 125.314 83.5942C125.129 83.5942 124.945 83.5942 124.76 83.5942C124.575 83.5942 124.39 83.5942 124.205 83.5942V85.5942Z" fill="#DCDDEB"/>
<defs>
<clipPath id="clip0_47_1278">
<rect width="59.1832" height="59.1832" fill="white" transform="translate(270.05 12.626)"/>
</clipPath>
<clipPath id="clip1_47_1278">
<rect width="48.1853" height="47.8788" fill="white" transform="translate(275.604 106.812)"/>
</clipPath>
</defs>
</svg>
